<svg width="256" height="256" viewBox="0 0 256 256" fill="none" xmlns="http://www.w3.org/2000/svg">
<rect width="256" height="256" fill="#EEEEEE"/>
<path d="M61.1406 161.41C57.1077 155.561 55.1794 148.565 55.6599 141.525V112.791C55.1512 105.699 57.0504 98.6413 61.0623 92.7147C64.69 88.1426 70.8884 85.8694 79.6574 85.895C88.4265 85.9205 94.3639 87.9255 97.4696 91.9101C101.256 96.8478 103.104 102.953 102.676 109.113V115.856H86.4691V108.538C86.4473 106.612 86.2771 104.691 85.9602 102.791C85.7642 101.415 85.1188 100.138 84.1202 99.1512C83.5038 98.6339 82.7882 98.242 82.0152 97.9986C81.2422 97.7552 80.4273 97.6651 79.6183 97.7337C78.4564 97.564 77.2693 97.7488 76.2186 98.2629C75.1679 98.7771 74.3045 99.5956 73.7461 100.607C72.7168 103.298 72.2638 106.167 72.4151 109.036V145.51C72.2365 148.398 72.7597 151.287 73.9419 153.939C74.5067 154.896 75.3448 155.67 76.3533 156.167C77.3617 156.664 78.4966 156.861 79.6183 156.736C80.7205 156.888 81.8438 156.696 82.828 156.187C83.8121 155.678 84.6069 154.878 85.0989 153.9C86.0459 151.205 86.4578 148.357 86.3125 145.51V137.847H102.52V144.475C102.997 150.726 101.3 156.951 97.7045 162.138C94.2595 166.352 88.309 168.421 79.8532 168.421C71.3973 168.421 64.7813 166.122 61.1406 161.41Z" fill="#111111"/>
<path d="M123.735 87.5789H142.489L158.316 166.737H142.727L139.917 149.247H126.781L123.616 166.624H107.789L123.735 87.5789ZM138.176 139.295L133.191 107.482L128.245 139.295H138.176Z" fill="#111111"/>
<path d="M169.357 99.5074H156.632V87.5789H198.737V99.5074H186.168V166.737H169.318L169.357 99.5074Z" fill="#111111"/>
</svg>
